<?xml version="1.0" encoding="UTF-8" standalone="no"?>
<!-- Created with Inkscape (http://www.inkscape.org/) -->

<svg
   width="210mm"
   height="297mm"
   viewBox="0 0 210 297"
   version="1.1"
   id="svg5"
   xml:space="preserve"
   inkscape:version="1.2.1 (9c6d41e410, 2022-07-14)"
   sodipodi:docname="Title.svg"
   xmlns:inkscape="http://www.inkscape.org/namespaces/inkscape"
   xmlns:sodipodi="http://sodipodi.sourceforge.net/DTD/sodipodi-0.dtd"
   xmlns="http://www.w3.org/2000/svg"
   xmlns:svg="http://www.w3.org/2000/svg"><sodipodi:namedview
     id="namedview7"
     pagecolor="#ffffff"
     bordercolor="#999999"
     borderopacity="1"
     inkscape:showpageshadow="0"
     inkscape:pageopacity="0"
     inkscape:pagecheckerboard="0"
     inkscape:deskcolor="#d1d1d1"
     inkscape:document-units="mm"
     showgrid="false"
     inkscape:zoom="1.069618"
     inkscape:cx="339.37348"
     inkscape:cy="934.91317"
     inkscape:window-width="1920"
     inkscape:window-height="1031"
     inkscape:window-x="0"
     inkscape:window-y="0"
     inkscape:window-maximized="1"
     inkscape:current-layer="layer1" /><defs
     id="defs2"><rect
       x="149.546"
       y="245.16479"
       width="113.61433"
       height="55.903575"
       id="rect292" /></defs><g
     inkscape:label="Layer 1"
     inkscape:groupmode="layer"
     id="layer1"><text
       xml:space="preserve"
       transform="scale(0.26458333)"
       id="text290"
       style="fill:#000000;stroke:#000000;stroke-width:0.37795276;-inkscape-font-specification:'Xirod, Normal';font-family:Xirod;font-weight:normal;font-style:normal;font-stretch:normal;font-variant:normal;font-size:12px;font-variant-ligatures:normal;font-variant-caps:normal;font-variant-numeric:normal;font-variant-east-asian:normal;white-space:pre;shape-inside:url(#rect292);fill-opacity:1;stroke-opacity:1;stroke-dasharray:none" /><path
       style="fill:#000000;stroke-width:0.0292968"
       d="m 92.58979,173.55084 v -1.47949 h 1.977539 1.977538 v 0.36083 c 0,0.60119 -0.09179,0.90424 -0.344426,1.13711 -0.295934,0.27278 -0.529744,0.3173 -1.669733,0.31796 l -0.886231,5.5e-4 v -0.33691 -0.33692 h 0.925748 c 1.023269,0 1.054298,-0.005 1.174391,-0.18324 0.0352,-0.0523 0.07289,-0.13133 0.08374,-0.17565 l 0.01974,-0.0806 h -1.262942 -1.262941 v 1.12793 1.12793 H 92.956 92.589789 Z m 4.39453,0 v -1.47949 h 0.366211 0.366211 v 1.47949 1.47949 H 97.350531 96.98432 Z m 1.289063,0.59209 c 0,-0.96263 0.01501,-1.08754 0.167124,-1.39097 0.09434,-0.18818 0.326167,-0.41315 0.534583,-0.51876 0.293882,-0.14892 0.430297,-0.16079 1.85444,-0.16134 l 1.31104,-5.6e-4 v 1.4795 1.47949 h -0.36621 -0.36621 v -0.57129 -0.57129 h -1.21582 -1.215822 v 0.57129 0.57129 h -0.351563 -0.351562 z m 3.134767,-1.13408 v -0.23438 h -0.84561 c -0.879989,0 -1.073958,0.0182 -1.285695,0.12072 -0.116611,0.0564 -0.241743,0.22083 -0.241743,0.31757 0,0.0206 0.384733,0.0305 1.186518,0.0305 h 1.18653 z m 1.28906,0.54199 v -1.47949 h 0.3216 c 0.26663,0 0.353,0.0118 0.50537,0.0692 0.67813,0.25535 1.42463,0.77461 2.13202,1.48301 l 0.36621,0.36673 -0.01,-0.95947 -0.01,-0.95947 h 0.35398 0.35399 v 1.47949 1.47949 h -0.37906 -0.37906 l -0.2,-0.26055 c -0.74557,-0.97129 -1.48762,-1.60248 -2.20393,-1.87466 l -0.14849,-0.0564 v 1.09581 1.09582 h -0.35157 -0.35156 z m 4.57031,0.61668 c 0,-0.51672 0.013,-0.92509 0.0324,-1.01807 0.0822,-0.39398 0.34742,-0.75096 0.67588,-0.90958 0.33117,-0.15993 0.41773,-0.16762 1.89184,-0.16809 l 1.35498,-4.4e-4 -5.5e-4,0.71045 c -5.6e-4,0.81526 -0.0312,1.17833 -0.11911,1.41334 -0.0924,0.24686 -0.30126,0.50192 -0.5166,0.63074 -0.33091,0.19795 -0.39259,0.20445 -1.94061,0.20445 h -1.37825 z m 2.82259,0.12809 c 0.062,-0.0172 0.15733,-0.0732 0.21196,-0.12435 0.14747,-0.13819 0.18811,-0.33685 0.18811,-0.91954 v -0.47725 h -0.99078 c -1.06865,0 -1.21757,0.017 -1.34597,0.15368 -0.136,0.14477 -0.1616,0.26805 -0.17644,0.84974 l -0.014,0.54932 1.00726,-2.2e-4 c 0.62358,-9e-5 1.05017,-0.0121 1.11989,-0.0314 z m -17.529108,-5.67397 c 5.42e-4,-0.90647 0.02289,-1.10728 0.155136,-1.39408 0.107965,-0.23416 0.314002,-0.44178 0.557101,-0.5614 0.361077,-0.17767 0.475232,-0.18944 1.843406,-0.19 l 1.223144,-5.6e-4 v 0.35156 0.35157 h -1.225812 c -1.305267,0 -1.392166,0.008 -1.585229,0.14544 -0.07521,0.0536 -0.206536,0.24907 -0.206536,0.30749 0,0.009 0.659179,0.0158 1.464843,0.0158 h 1.464844 v 0.32226 0.32227 h -1.479492 -1.479492 v 0.23437 0.23438 h 1.523437 1.523437 v 0.35156 0.35156 h -1.889648 -1.889648 l 5.09e-4,-0.84228 z m 4.21824,-0.65185 v -1.49414 h 0.351219 0.351218 l 0.0077,1.13525 0.0077,1.13525 h 0.893555 0.893554 l 0.168496,-0.0827 c 0.128033,-0.0629 0.186744,-0.11387 0.244483,-0.2124 l 0.07599,-0.12966 h 0.375426 0.37542 l -0.0396,0.14996 c -0.0976,0.37004 -0.35561,0.68999 -0.673866,0.83569 -0.298097,0.13648 -0.512308,0.1548 -1.822772,0.1559 l -1.208496,0.001 z m 5.120018,1.46388 c -0.51633,-0.0869 -0.90932,-0.39243 -1.07521,-0.83581 -0.09,-0.24054 -0.11903,-0.57751 -0.11903,-1.3817 v -0.74051 h 1.88965 1.88965 v 0.35156 0.35156 h -1.52344 -1.52343 v 0.23438 0.23437 h 1.49414 1.49414 v 0.32227 0.32226 h -1.46485 c -1.39702,0 -1.46484,0.002 -1.46484,0.0533 0,0.0844 0.19179,0.28614 0.32892,0.34593 0.11456,0.0499 0.23266,0.0554 1.39227,0.0637 l 1.26709,0.009 v 0.34986 0.34986 l -1.22314,-0.003 c -0.67273,-0.002 -1.28559,-0.014 -1.36192,-0.0268 z m 3.00297,-0.89992 c 0.01,-0.7107 0.023,-0.96474 0.0565,-1.07666 0.13524,-0.45231 0.42363,-0.75086 0.86884,-0.89943 0.1873,-0.0625 0.24493,-0.0654 1.49121,-0.0754 l 1.29639,-0.0104 v 0.35348 0.35348 h -1.18121 c -1.28661,0 -1.38862,0.0107 -1.57259,0.16554 -0.0498,0.0419 -0.11965,0.13057 -0.15519,0.19703 -0.0588,0.10994 -0.0655,0.17029 -0.0742,0.67014 l -0.01,0.54932 h 1.49642 1.49642 v 0.35156 0.35156 h -1.86283 -1.86284 z m 5.70514,-0.2124 v -1.14258 l -0.31494,6.6e-4 c -0.44981,8.9e-4 -0.58898,0.0696 -0.66518,0.32802 l -0.037,0.12544 -0.31658,0.008 c -0.17412,0.005 -0.3271,-0.002 -0.33995,-0.015 -0.0361,-0.0361 0.049,-0.39393 0.13328,-0.56019 0.15361,-0.30314 0.45319,-0.50034 0.85187,-0.56075 0.12773,-0.0194 0.69129,-0.028 1.49414,-0.023 l 1.28906,0.008 0.008,0.34424 0.008,0.34424 h -0.68941 -0.6894 v 1.14258 1.14258 h -0.36621 -0.36621 z m 2.49023,-0.35156 v -1.49414 h 1.97754 1.97754 v 0.39406 c 0,0.46149 -0.032,0.64197 -0.15506,0.87548 -0.14408,0.27332 -0.39274,0.44227 -0.76082,0.51692 l -0.1688,0.0342 0.55695,0.57646 0.55695,0.57647 -0.43101,0.008 -0.43101,0.008 -0.58728,-0.58676 -0.58728,-0.58676 h -0.44652 -0.44651 v -0.32226 -0.32227 l 0.88623,-0.002 c 0.58813,-0.001 0.92457,-0.0138 1.00022,-0.0367 0.13285,-0.0401 0.27115,-0.19487 0.29912,-0.33474 l 0.019,-0.0951 h -1.26343 -1.26343 v 1.14258 1.14258 h -0.36621 -0.36621 z m 4.48242,0 v -1.49414 h 0.36621 0.36621 v 1.49414 1.49414 h -0.36621 -0.36621 z m 1.26752,0.56396 c 0.0137,-1.00502 0.025,-1.08933 0.18428,-1.38202 0.15368,-0.28237 0.4016,-0.48038 0.74547,-0.5954 0.18186,-0.0608 0.24872,-0.0642 1.48681,-0.0741 l 1.29639,-0.0104 v 0.35348 0.35348 h -1.18121 c -1.28661,0 -1.38862,0.0107 -1.57259,0.16554 -0.0498,0.0419 -0.11965,0.13057 -0.15519,0.19703 -0.0588,0.10994 -0.0655,0.17029 -0.0742,0.67014 l -0.01,0.54932 h 1.49642 1.49642 v 0.35156 0.35156 h -1.86283 -1.86283 z"
       id="path6212" /></g></svg>
