M48
; DRILL file {KiCad (6.0.7)} date Wed 03 Aug 2022 09:20:48 AM MST
; FORMAT={-:-/ absolute / inch / decimal}
; #@! TF.CreationDate,2022-08-03T09:20:48-07:00
; #@! TF.GenerationSoftware,Kicad,Pcbnew,(6.0.7)
; #@! TF.FileFunction,Plated,1,2,PTH
FMAT,2
INCH
; #@! TA.AperFunction,Plated,PTH,ComponentDrill
T1C0.0276
; #@! TA.AperFunction,Plated,PTH,ComponentDrill
T2C0.0315
; #@! TA.AperFunction,Plated,PTH,ComponentDrill
T3C0.0390
; #@! TA.AperFunction,Plated,PTH,ComponentDrill
T4C0.0394
; #@! TA.AperFunction,Plated,PTH,ComponentDrill
T5C0.0866
%
G90
G05
T1
X4.1561Y-5.2637
X4.4561Y-5.2637
X4.5519Y-5.2642
X4.8519Y-5.2642
X4.9519Y-5.2642
X5.2519Y-5.2642
X5.3519Y-5.2642
X5.6519Y-5.2642
X5.7519Y-5.2642
X6.0519Y-5.2642
X6.1519Y-5.2642
X6.4Y-4.67
X6.4Y-4.97
X6.4519Y-5.2642
X6.5381Y-5.2642
X6.8381Y-5.2642
X6.95Y-5.2638
X7.25Y-5.2638
T2
X6.5949Y-4.7662
X6.5949Y-5.0662
X6.6949Y-4.7662
X6.6949Y-5.0662
X6.7949Y-4.7662
X6.7949Y-5.0662
X6.8949Y-4.7662
X6.8949Y-5.0662
T3
X4.172Y-5.4114
X4.172Y-5.5886
X4.428Y-5.4114
X4.428Y-5.5886
X4.572Y-5.4114
X4.572Y-5.5886
X4.828Y-5.4114
X4.828Y-5.5886
X4.972Y-5.4114
X4.972Y-5.5886
X5.228Y-5.4114
X5.228Y-5.5886
X5.372Y-5.4114
X5.372Y-5.5886
X5.628Y-5.4114
X5.628Y-5.5886
X5.772Y-5.4114
X5.772Y-5.5886
X6.028Y-5.4114
X6.028Y-5.5886
X6.172Y-5.4114
X6.172Y-5.5886
X6.428Y-5.4114
X6.428Y-5.5886
X6.572Y-5.4114
X6.572Y-5.5886
X6.828Y-5.4114
X6.828Y-5.5886
X6.972Y-5.4114
X6.972Y-5.5886
X7.228Y-5.4114
X7.228Y-5.5886
T4
X4.2047Y-5.0
X4.7953Y-5.0
X4.9047Y-5.0
X5.4Y-4.7548
X5.4953Y-5.0
X5.5Y-4.7548
X5.7989Y-4.8377
X6.0981Y-4.8377
T5
X4.3Y-4.6
X7.1Y-4.6
T0
M30
