%TF.GenerationSoftware,KiCad,Pcbnew,(6.0.7)*%
%TF.CreationDate,2022-08-03T09:20:52-07:00*%
%TF.ProjectId,PianoKeychain,5069616e-6f4b-4657-9963-6861696e2e6b,rev?*%
%TF.SameCoordinates,Original*%
%TF.FileFunction,Copper,L1,Top*%
%TF.FilePolarity,Positive*%
%FSLAX46Y46*%
G04 Gerber Fmt 4.6, Leading zero omitted, Abs format (unit mm)*
G04 Created by KiCad (PCBNEW (6.0.7)) date 2022-08-03 09:20:52*
%MOMM*%
%LPD*%
G01*
G04 APERTURE LIST*
%TA.AperFunction,ComponentPad*%
%ADD10R,1.498000X1.498000*%
%TD*%
%TA.AperFunction,ComponentPad*%
%ADD11C,1.498000*%
%TD*%
%TA.AperFunction,ComponentPad*%
%ADD12C,1.400000*%
%TD*%
%TA.AperFunction,ComponentPad*%
%ADD13O,1.400000X1.400000*%
%TD*%
%TA.AperFunction,ComponentPad*%
%ADD14C,4.400000*%
%TD*%
%TA.AperFunction,ComponentPad*%
%ADD15R,2.000000X2.000000*%
%TD*%
%TA.AperFunction,ComponentPad*%
%ADD16O,2.000000X2.000000*%
%TD*%
%TA.AperFunction,ComponentPad*%
%ADD17R,1.600000X1.600000*%
%TD*%
%TA.AperFunction,ComponentPad*%
%ADD18O,1.600000X1.600000*%
%TD*%
%TA.AperFunction,ComponentPad*%
%ADD19C,2.000000*%
%TD*%
%TA.AperFunction,ComponentPad*%
%ADD20R,1.700000X1.700000*%
%TD*%
%TA.AperFunction,ComponentPad*%
%ADD21O,1.700000X1.700000*%
%TD*%
%TA.AperFunction,Conductor*%
%ADD22C,0.250000*%
%TD*%
G04 APERTURE END LIST*
D10*
%TO.P,SW6,1*%
%TO.N,unconnected-(SW6-Pad1)*%
X126290000Y-137450000D03*
D11*
%TO.P,SW6,2*%
%TO.N,Net-(R7-Pad2)*%
X132790000Y-137450000D03*
%TO.P,SW6,3*%
%TO.N,Net-(C2-Pad1)*%
X126290000Y-141950000D03*
%TO.P,SW6,4*%
%TO.N,unconnected-(SW6-Pad4)*%
X132790000Y-141950000D03*
%TD*%
D12*
%TO.P,R8,1*%
%TO.N,Net-(R7-Pad2)*%
X166068282Y-133711832D03*
D13*
%TO.P,R8,2*%
%TO.N,Net-(R8-Pad2)*%
X173688282Y-133711832D03*
%TD*%
D14*
%TO.P,Mount,1*%
%TO.N,N/C*%
X109220000Y-116840000D03*
%TD*%
D15*
%TO.P,C1,1*%
%TO.N,Net-(C1-Pad1)*%
X124580000Y-127000000D03*
D16*
%TO.P,C1,2*%
%TO.N,Net-(C1-Pad2)*%
X139580000Y-127000000D03*
%TD*%
D10*
%TO.P,SW1,1*%
%TO.N,unconnected-(SW1-Pad1)*%
X177090000Y-137450000D03*
D11*
%TO.P,SW1,2*%
%TO.N,Net-(R2-Pad2)*%
X183590000Y-137450000D03*
%TO.P,SW1,3*%
%TO.N,Net-(C2-Pad1)*%
X177090000Y-141950000D03*
%TO.P,SW1,4*%
%TO.N,unconnected-(SW1-Pad4)*%
X183590000Y-141950000D03*
%TD*%
D17*
%TO.P,U1,1,GND*%
%TO.N,GND*%
X167511421Y-128681359D03*
D18*
%TO.P,U1,2,TR*%
%TO.N,Net-(C2-Pad1)*%
X170051421Y-128681359D03*
%TO.P,U1,3,Q*%
%TO.N,Net-(C1-Pad1)*%
X172591421Y-128681359D03*
%TO.P,U1,4,R*%
%TO.N,+9V*%
X175131421Y-128681359D03*
%TO.P,U1,5,CV*%
%TO.N,unconnected-(U1-Pad5)*%
X175131421Y-121061359D03*
%TO.P,U1,6,THR*%
%TO.N,Net-(C2-Pad1)*%
X172591421Y-121061359D03*
%TO.P,U1,7,DIS*%
%TO.N,Net-(C1-Pad1)*%
X170051421Y-121061359D03*
%TO.P,U1,8,VCC*%
%TO.N,+9V*%
X167511421Y-121061359D03*
%TD*%
D10*
%TO.P,SW8,1*%
%TO.N,unconnected-(SW8-Pad1)*%
X105970000Y-137450000D03*
D11*
%TO.P,SW8,2*%
%TO.N,Net-(R9-Pad2)*%
X112470000Y-137450000D03*
%TO.P,SW8,3*%
%TO.N,Net-(C2-Pad1)*%
X105970000Y-141950000D03*
%TO.P,SW8,4*%
%TO.N,unconnected-(SW8-Pad4)*%
X112470000Y-141950000D03*
%TD*%
D10*
%TO.P,SW7,1*%
%TO.N,unconnected-(SW7-Pad1)*%
X116130000Y-137450000D03*
D11*
%TO.P,SW7,2*%
%TO.N,Net-(R8-Pad2)*%
X122630000Y-137450000D03*
%TO.P,SW7,3*%
%TO.N,Net-(C2-Pad1)*%
X116130000Y-141950000D03*
%TO.P,SW7,4*%
%TO.N,unconnected-(SW7-Pad4)*%
X122630000Y-141950000D03*
%TD*%
D13*
%TO.P,R9,2*%
%TO.N,Net-(R9-Pad2)*%
X184150000Y-133700000D03*
D12*
%TO.P,R9,1*%
%TO.N,Net-(R8-Pad2)*%
X176530000Y-133700000D03*
%TD*%
D15*
%TO.P,C2,1*%
%TO.N,Net-(C2-Pad1)*%
X106800000Y-127000000D03*
D16*
%TO.P,C2,2*%
%TO.N,GND*%
X121800000Y-127000000D03*
%TD*%
D10*
%TO.P,SW2,1*%
%TO.N,unconnected-(SW2-Pad1)*%
X166930000Y-137450000D03*
D11*
%TO.P,SW2,2*%
%TO.N,Net-(R3-Pad2)*%
X173430000Y-137450000D03*
%TO.P,SW2,3*%
%TO.N,Net-(C2-Pad1)*%
X166930000Y-141950000D03*
%TO.P,SW2,4*%
%TO.N,unconnected-(SW2-Pad4)*%
X173430000Y-141950000D03*
%TD*%
D12*
%TO.P,R7,1*%
%TO.N,Net-(R6-Pad2)*%
X156258282Y-133711832D03*
D13*
%TO.P,R7,2*%
%TO.N,Net-(R7-Pad2)*%
X163878282Y-133711832D03*
%TD*%
D14*
%TO.P,Mount,1*%
%TO.N,N/C*%
X180340000Y-116840000D03*
%TD*%
D10*
%TO.P,SW5,1*%
%TO.N,unconnected-(SW5-Pad1)*%
X136450000Y-137450000D03*
D11*
%TO.P,SW5,2*%
%TO.N,Net-(R6-Pad2)*%
X142950000Y-137450000D03*
%TO.P,SW5,3*%
%TO.N,Net-(C2-Pad1)*%
X136450000Y-141950000D03*
%TO.P,SW5,4*%
%TO.N,unconnected-(SW5-Pad4)*%
X142950000Y-141950000D03*
%TD*%
D12*
%TO.P,R4,1*%
%TO.N,Net-(R3-Pad2)*%
X125778282Y-133711832D03*
D13*
%TO.P,R4,2*%
%TO.N,Net-(R4-Pad2)*%
X133398282Y-133711832D03*
%TD*%
D12*
%TO.P,R1,1*%
%TO.N,+9V*%
X162560000Y-118618000D03*
D13*
%TO.P,R1,2*%
%TO.N,Net-(C1-Pad1)*%
X162560000Y-126238000D03*
%TD*%
D12*
%TO.P,R2,1*%
%TO.N,Net-(C1-Pad1)*%
X105565184Y-133699249D03*
D13*
%TO.P,R2,2*%
%TO.N,Net-(R2-Pad2)*%
X113185184Y-133699249D03*
%TD*%
D15*
%TO.P,LS1,1,1*%
%TO.N,Net-(C1-Pad2)*%
X147292631Y-122878259D03*
D19*
%TO.P,LS1,2,2*%
%TO.N,GND*%
X154892631Y-122878259D03*
%TD*%
D12*
%TO.P,R3,1*%
%TO.N,Net-(R2-Pad2)*%
X115618282Y-133711832D03*
D13*
%TO.P,R3,2*%
%TO.N,Net-(R3-Pad2)*%
X123238282Y-133711832D03*
%TD*%
D10*
%TO.P,SW3,1*%
%TO.N,unconnected-(SW3-Pad1)*%
X156770000Y-137450000D03*
D11*
%TO.P,SW3,2*%
%TO.N,Net-(R4-Pad2)*%
X163270000Y-137450000D03*
%TO.P,SW3,3*%
%TO.N,Net-(C2-Pad1)*%
X156770000Y-141950000D03*
%TO.P,SW3,4*%
%TO.N,unconnected-(SW3-Pad4)*%
X163270000Y-141950000D03*
%TD*%
D12*
%TO.P,R5,1*%
%TO.N,Net-(R4-Pad2)*%
X135938282Y-133711832D03*
D13*
%TO.P,R5,2*%
%TO.N,Net-(R5-Pad2)*%
X143558282Y-133711832D03*
%TD*%
D10*
%TO.P,SW4,1*%
%TO.N,unconnected-(SW4-Pad1)*%
X146610000Y-137450000D03*
D11*
%TO.P,SW4,2*%
%TO.N,Net-(R5-Pad2)*%
X153110000Y-137450000D03*
%TO.P,SW4,3*%
%TO.N,Net-(C2-Pad1)*%
X146610000Y-141950000D03*
%TO.P,SW4,4*%
%TO.N,unconnected-(SW4-Pad4)*%
X153110000Y-141950000D03*
%TD*%
D12*
%TO.P,R6,1*%
%TO.N,Net-(R5-Pad2)*%
X146098282Y-133711832D03*
D13*
%TO.P,R6,2*%
%TO.N,Net-(R6-Pad2)*%
X153718282Y-133711832D03*
%TD*%
D20*
%TO.P,BT1,1,+*%
%TO.N,+9V*%
X139700000Y-120772446D03*
D21*
%TO.P,BT1,2,-*%
%TO.N,GND*%
X137160000Y-120772446D03*
%TD*%
D22*
%TO.N,Net-(C1-Pad1)*%
X122040000Y-129540000D02*
X127000000Y-129540000D01*
X127000000Y-129540000D02*
X128016000Y-130556000D01*
X124580000Y-127000000D02*
X122040000Y-129540000D01*
X122040000Y-129540000D02*
X115316000Y-129540000D01*
X115316000Y-129540000D02*
X110236000Y-124460000D01*
X110236000Y-124460000D02*
X105410000Y-124460000D01*
X105410000Y-124460000D02*
X105156000Y-124714000D01*
X105156000Y-124714000D02*
X105156000Y-133290065D01*
X105156000Y-133290065D02*
X105565184Y-133699249D01*
%TO.N,Net-(R8-Pad2)*%
X173688282Y-133711832D02*
X176518168Y-133711832D01*
X176518168Y-133711832D02*
X176530000Y-133700000D01*
%TO.N,Net-(R7-Pad2)*%
X163878282Y-133711832D02*
X166068282Y-133711832D01*
%TO.N,Net-(C2-Pad1)*%
X170051421Y-128681359D02*
X171730062Y-130360000D01*
X171730062Y-130360000D02*
X184336396Y-130360000D01*
X184336396Y-130360000D02*
X185870000Y-131893604D01*
X185870000Y-131893604D02*
X185870000Y-135806396D01*
X185870000Y-135806396D02*
X185420000Y-136256396D01*
X185420000Y-136256396D02*
X185420000Y-138137302D01*
X185420000Y-138137302D02*
X181607302Y-141950000D01*
X181607302Y-141950000D02*
X177090000Y-141950000D01*
%TO.N,Net-(R2-Pad2)*%
X183590000Y-137450000D02*
X185420000Y-135620000D01*
X118520114Y-130810000D02*
X115618282Y-133711832D01*
X185420000Y-135620000D02*
X185420000Y-132080000D01*
X185420000Y-132080000D02*
X184150000Y-130810000D01*
X168267778Y-130810000D02*
X168071778Y-131006000D01*
X127829604Y-131006000D02*
X127633604Y-130810000D01*
X127633604Y-130810000D02*
X118520114Y-130810000D01*
X184150000Y-130810000D02*
X168267778Y-130810000D01*
X168071778Y-131006000D02*
X127829604Y-131006000D01*
%TO.N,Net-(R9-Pad2)*%
X112470000Y-137450000D02*
X115620000Y-140600000D01*
X115620000Y-140600000D02*
X177250000Y-140600000D01*
X177250000Y-140600000D02*
X184150000Y-133700000D01*
%TO.N,Net-(R8-Pad2)*%
X122630000Y-137450000D02*
X125330000Y-140150000D01*
X125330000Y-140150000D02*
X173247302Y-140150000D01*
X173247302Y-140150000D02*
X175260000Y-138137302D01*
X175260000Y-138137302D02*
X175260000Y-135283550D01*
X175260000Y-135283550D02*
X173688282Y-133711832D01*
%TO.N,Net-(R7-Pad2)*%
X165100000Y-139700000D02*
X165100000Y-134933550D01*
X165100000Y-134933550D02*
X163878282Y-133711832D01*
X135040000Y-139700000D02*
X165100000Y-139700000D01*
X132790000Y-137450000D02*
X135040000Y-139700000D01*
%TO.N,Net-(R6-Pad2)*%
X154846000Y-138524000D02*
X154940000Y-138430000D01*
X144024000Y-138524000D02*
X154846000Y-138524000D01*
X142950000Y-137450000D02*
X144024000Y-138524000D01*
X154940000Y-134933550D02*
X153718282Y-133711832D01*
X154940000Y-138430000D02*
X154940000Y-134933550D01*
%TO.N,Net-(R5-Pad2)*%
X153110000Y-137450000D02*
X153110000Y-136600000D01*
X153110000Y-136600000D02*
X150221832Y-133711832D01*
X150221832Y-133711832D02*
X146098282Y-133711832D01*
%TO.N,Net-(R4-Pad2)*%
X163270000Y-137450000D02*
X158506832Y-132686832D01*
X158506832Y-132686832D02*
X136963282Y-132686832D01*
X136963282Y-132686832D02*
X135938282Y-133711832D01*
%TO.N,Net-(R3-Pad2)*%
X173430000Y-137450000D02*
X167436000Y-131456000D01*
X167436000Y-131456000D02*
X128034114Y-131456000D01*
X128034114Y-131456000D02*
X125778282Y-133711832D01*
%TO.N,Net-(C2-Pad1)*%
X105970000Y-141950000D02*
X107044000Y-140876000D01*
X107044000Y-140876000D02*
X107044000Y-127244000D01*
X107044000Y-127244000D02*
X106800000Y-127000000D01*
X117326000Y-143024000D02*
X117204000Y-143024000D01*
X127364000Y-143024000D02*
X117326000Y-143024000D01*
X117326000Y-143024000D02*
X107044000Y-143024000D01*
X107044000Y-143024000D02*
X105970000Y-141950000D01*
X117204000Y-143024000D02*
X116130000Y-141950000D01*
X137944000Y-143024000D02*
X137524000Y-143024000D01*
X147684000Y-143024000D02*
X137944000Y-143024000D01*
X137944000Y-143024000D02*
X127364000Y-143024000D01*
X127364000Y-143024000D02*
X126290000Y-141950000D01*
X137524000Y-143024000D02*
X136450000Y-141950000D01*
X157844000Y-143024000D02*
X147684000Y-143024000D01*
X147684000Y-143024000D02*
X146610000Y-141950000D01*
X168004000Y-143024000D02*
X157844000Y-143024000D01*
X157844000Y-143024000D02*
X156770000Y-141950000D01*
X177090000Y-141950000D02*
X176016000Y-143024000D01*
X176016000Y-143024000D02*
X168004000Y-143024000D01*
X168004000Y-143024000D02*
X166930000Y-141950000D01*
%TO.N,GND*%
X142240000Y-121412000D02*
X153426372Y-121412000D01*
X128027554Y-120772446D02*
X137160000Y-120772446D01*
X141224000Y-122428000D02*
X142240000Y-121412000D01*
X138176000Y-122428000D02*
X141224000Y-122428000D01*
X121800000Y-127000000D02*
X128027554Y-120772446D01*
X167511421Y-128681359D02*
X160695731Y-128681359D01*
X160695731Y-128681359D02*
X154892631Y-122878259D01*
X153426372Y-121412000D02*
X154892631Y-122878259D01*
X137160000Y-121412000D02*
X138176000Y-122428000D01*
X137160000Y-120772446D02*
X137160000Y-121412000D01*
%TO.N,+9V*%
X176256421Y-127556359D02*
X176256421Y-120376421D01*
X174752000Y-118872000D02*
X169700780Y-118872000D01*
X162560000Y-118618000D02*
X169418000Y-118618000D01*
X169672000Y-118872000D02*
X169700780Y-118872000D01*
X176256421Y-120376421D02*
X174752000Y-118872000D01*
X175131421Y-128681359D02*
X176256421Y-127556359D01*
X169700780Y-118872000D02*
X167511421Y-121061359D01*
X160405554Y-120772446D02*
X162560000Y-118618000D01*
X169418000Y-118618000D02*
X169672000Y-118872000D01*
X139700000Y-120772446D02*
X160405554Y-120772446D01*
%TO.N,Net-(R2-Pad2)*%
X115605699Y-133699249D02*
X115618282Y-133711832D01*
X113185184Y-133699249D02*
X115605699Y-133699249D01*
%TO.N,Net-(R3-Pad2)*%
X123238282Y-133711832D02*
X125778282Y-133711832D01*
%TO.N,Net-(R4-Pad2)*%
X133398282Y-133711832D02*
X135938282Y-133711832D01*
%TO.N,Net-(R5-Pad2)*%
X143558282Y-133711832D02*
X146098282Y-133711832D01*
%TO.N,Net-(R6-Pad2)*%
X153718282Y-133711832D02*
X156258282Y-133711832D01*
%TO.N,Net-(R8-Pad2)*%
X173430000Y-133970114D02*
X173688282Y-133711832D01*
%TO.N,Net-(C1-Pad1)*%
X174006421Y-119650421D02*
X173736000Y-119380000D01*
X162560000Y-126238000D02*
X164874780Y-126238000D01*
X171732780Y-119380000D02*
X170051421Y-121061359D01*
X174006421Y-127266359D02*
X174006421Y-119650421D01*
X172591421Y-128681359D02*
X174006421Y-127266359D01*
X168778691Y-122334089D02*
X170051421Y-121061359D01*
X168778691Y-129662691D02*
X168778691Y-122334089D01*
X173736000Y-119380000D02*
X171732780Y-119380000D01*
X128016000Y-130556000D02*
X167885382Y-130556000D01*
X124580000Y-127000000D02*
X124580000Y-127120000D01*
X167885382Y-130556000D02*
X168778691Y-129662691D01*
X164874780Y-126238000D02*
X170051421Y-121061359D01*
%TO.N,Net-(C1-Pad2)*%
X139580000Y-127000000D02*
X143170890Y-127000000D01*
X143170890Y-127000000D02*
X147292631Y-122878259D01*
%TO.N,Net-(C2-Pad1)*%
X170051421Y-128681359D02*
X170051421Y-123601359D01*
X170051421Y-123601359D02*
X172591421Y-121061359D01*
%TD*%
M02*
